<svg xmlns="http://www.w3.org/2000/svg" xmlns:xlink="http://www.w3.org/1999/xlink" width="500" zoomAndPan="magnify" viewBox="0 0 375 374.999991" height="500" preserveAspectRatio="xMidYMid meet" version="1.0"><defs><g/><clipPath id="3a4a2d8d48"><path d="M 19 4.453125 L 356 4.453125 L 356 184 L 19 184 Z M 19 4.453125 " clip-rule="nonzero"/></clipPath><clipPath id="47e8d894d0"><path d="M 203 304 L 335 304 L 335 370.453125 L 203 370.453125 Z M 203 304 " clip-rule="nonzero"/></clipPath></defs><path fill="#ffffff" d="M 320.660156 224.796875 C 319.558594 224.796875 318.390625 224.359375 317.582031 223.480469 C 316.191406 222.089844 315.898438 220.039062 316.777344 218.355469 C 317.511719 216.964844 318.972656 215.941406 320.660156 215.941406 C 323.074219 215.941406 325.050781 217.917969 325.050781 220.332031 C 325.050781 221.503906 324.609375 222.601562 323.734375 223.480469 C 322.925781 224.359375 321.828125 224.796875 320.660156 224.796875 Z M 320.660156 224.796875 " fill-opacity="1" fill-rule="nonzero"/><path fill="#ffffff" d="M 327.980469 313.375 C 326.003906 313.375 324.027344 313.15625 322.050781 312.789062 C 308.871094 310.082031 299.28125 298.367188 299.28125 284.898438 C 299.28125 282.335938 299.648438 279.773438 300.308594 277.210938 L 311.800781 235.851562 C 311.875 235.703125 311.945312 235.484375 312.019531 235.339844 C 312.679688 233.726562 314.214844 232.628906 316.046875 232.628906 C 318.460938 232.628906 320.4375 234.605469 320.4375 237.023438 C 320.4375 237.460938 320.367188 237.972656 320.21875 238.339844 L 308.800781 279.480469 C 308.285156 281.238281 308.066406 282.996094 308.066406 284.824219 C 308.066406 294.121094 314.730469 302.246094 323.804688 304.152344 C 334.421875 306.347656 344.597656 299.832031 347.011719 289.289062 L 365.460938 209.570312 C 367.070312 202.761719 365.386719 195.734375 360.847656 190.390625 C 356.308594 185.046875 349.71875 182.265625 342.765625 182.632812 L 320.660156 184.023438 C 318.242188 184.167969 316.121094 182.339844 315.972656 179.921875 C 315.828125 177.507812 317.65625 175.382812 320.074219 175.238281 L 342.253906 173.847656 C 352.0625 173.261719 361.285156 177.214844 367.582031 184.679688 C 373.949219 192.148438 376.292969 201.957031 374.097656 211.472656 L 355.648438 291.195312 C 352.574219 304.515625 341.007812 313.375 327.980469 313.375 Z M 327.980469 313.375 " fill-opacity="1" fill-rule="nonzero"/><path fill="#ffffff" d="M 47.019531 313.375 C 33.992188 313.375 22.425781 304.515625 19.351562 291.265625 L 0.902344 211.546875 C -1.292969 201.957031 1.050781 192.222656 7.417969 184.753906 C 13.785156 177.289062 23.011719 173.335938 32.746094 173.921875 L 54.925781 175.3125 C 57.34375 175.457031 59.171875 177.582031 59.027344 179.996094 C 58.878906 182.414062 56.757812 184.242188 54.339844 184.097656 L 32.160156 182.707031 C 25.207031 182.265625 18.542969 185.121094 14.078125 190.464844 C 9.539062 195.808594 7.855469 202.761719 9.46875 209.644531 L 27.914062 289.289062 C 30.332031 299.832031 40.578125 306.347656 51.121094 304.152344 C 60.269531 302.246094 66.859375 294.121094 66.859375 284.824219 C 66.859375 283.066406 66.640625 281.238281 66.128906 279.480469 L 54.707031 238.339844 C 54.5625 237.902344 54.488281 237.460938 54.488281 237.023438 C 54.488281 234.605469 56.464844 232.628906 58.878906 232.628906 C 60.710938 232.628906 62.246094 233.726562 62.90625 235.339844 C 62.980469 235.484375 63.054688 235.703125 63.054688 235.851562 L 74.546875 277.210938 C 75.277344 279.699219 75.570312 282.335938 75.570312 284.898438 C 75.570312 298.367188 65.980469 310.082031 52.804688 312.789062 C 50.972656 313.15625 48.996094 313.375 47.019531 313.375 Z M 47.019531 313.375 " fill-opacity="1" fill-rule="nonzero"/><path fill="#ffffff" d="M 54.339844 224.796875 C 53.242188 224.796875 52.074219 224.359375 51.265625 223.480469 C 50.460938 222.675781 49.949219 221.503906 49.949219 220.332031 C 49.949219 217.917969 51.925781 215.941406 54.339844 215.941406 C 56.027344 215.941406 57.5625 216.890625 58.292969 218.355469 C 59.171875 220.039062 58.878906 222.089844 57.488281 223.480469 C 56.539062 224.359375 55.441406 224.796875 54.339844 224.796875 Z M 54.339844 224.796875 " fill-opacity="1" fill-rule="nonzero"/><path fill="#ffffff" d="M 106.242188 269.011719 C 99.582031 269.011719 92.992188 267.988281 86.699219 265.863281 C 69.496094 260.15625 56.832031 247.492188 51.851562 231.019531 C 50.460938 226.335938 49.730469 221.285156 49.730469 215.867188 L 49.730469 187.609375 C 49.730469 165.722656 60.417969 145.296875 78.351562 133.074219 C 95.847656 121.140625 117.371094 113.015625 144.164062 108.402344 C 172.933594 103.425781 202.140625 103.425781 230.910156 108.402344 C 257.703125 113.015625 279.226562 121.066406 296.71875 133.074219 C 314.65625 145.296875 325.269531 165.722656 325.269531 187.609375 L 325.269531 215.867188 C 325.269531 221.285156 324.539062 226.40625 323.148438 231.019531 C 318.167969 247.492188 305.433594 260.15625 288.300781 265.863281 C 268.316406 272.453125 245.625 268.425781 227.46875 255.03125 C 223.441406 252.03125 219.929688 249.90625 216.488281 248.222656 C 197.015625 238.851562 178.058594 238.851562 158.585938 248.222656 C 155.144531 249.90625 151.628906 252.03125 147.605469 255.03125 C 135.160156 264.179688 120.589844 269.011719 106.242188 269.011719 Z M 187.5 113.453125 C 173.519531 113.453125 159.535156 114.625 145.628906 117.042969 C 120.078125 121.433594 99.726562 129.046875 83.257812 140.246094 C 67.738281 150.859375 58.515625 168.503906 58.515625 187.535156 L 58.515625 215.792969 C 58.515625 220.332031 59.101562 224.578125 60.269531 228.457031 C 64.445312 242.148438 75.058594 252.761719 89.480469 257.519531 C 106.757812 263.230469 126.449219 259.644531 142.332031 248.003906 C 146.796875 244.707031 150.75 242.21875 154.777344 240.316406 C 176.519531 229.847656 198.554688 229.847656 220.296875 240.316406 C 224.25 242.21875 228.203125 244.636719 232.738281 248.003906 C 248.550781 259.714844 268.316406 263.304688 285.59375 257.519531 C 300.015625 252.761719 310.703125 242.148438 314.800781 228.457031 C 315.972656 224.652344 316.558594 220.40625 316.558594 215.792969 L 316.558594 187.535156 C 316.558594 168.503906 307.335938 150.859375 291.816406 140.246094 C 275.417969 129.046875 254.996094 121.433594 229.445312 117.039062 C 215.464844 114.699219 201.480469 113.453125 187.5 113.453125 Z M 144.96875 251.515625 Z M 144.96875 251.515625 " fill-opacity="1" fill-rule="nonzero"/><path fill="#ffffff" d="M 83.695312 194.050781 C 82.597656 194.050781 81.425781 193.613281 80.621094 192.734375 C 78.9375 191.050781 78.9375 188.269531 80.621094 186.511719 L 119.421875 147.714844 C 121.105469 146.03125 123.886719 146.03125 125.640625 147.714844 C 127.328125 149.398438 127.328125 152.179688 125.640625 153.9375 L 86.84375 192.734375 C 85.964844 193.613281 84.867188 194.050781 83.695312 194.050781 Z M 83.695312 194.050781 " fill-opacity="1" fill-rule="nonzero"/><g clip-path="url(#3a4a2d8d48)"><path fill="#ffffff" d="M 351.183594 183.582031 C 351.183594 183.582031 351.109375 183.582031 351.109375 183.582031 C 348.695312 183.511719 346.792969 181.535156 346.792969 179.117188 C 346.792969 177.875 346.867188 176.628906 346.867188 175.382812 C 346.867188 86.003906 275.34375 13.238281 187.5 13.238281 C 99.65625 13.238281 28.132812 86.003906 28.132812 175.382812 C 28.132812 176.628906 28.132812 177.875 28.207031 179.117188 C 28.28125 181.535156 26.378906 183.582031 23.890625 183.582031 C 21.472656 183.65625 19.421875 181.753906 19.421875 179.265625 C 19.421875 177.945312 19.351562 176.628906 19.351562 175.3125 C 19.351562 129.632812 36.847656 86.734375 68.542969 54.453125 C 100.3125 22.242188 142.550781 4.453125 187.5 4.453125 C 232.449219 4.453125 274.6875 22.242188 306.382812 54.523438 C 338.152344 86.808594 355.578125 129.707031 355.578125 175.382812 C 355.578125 176.703125 355.578125 178.019531 355.503906 179.335938 C 355.503906 181.679688 353.601562 183.582031 351.183594 183.582031 Z M 351.183594 183.582031 " fill-opacity="1" fill-rule="nonzero"/></g><path fill="#ffffff" d="M 156.460938 115.429688 C 154.191406 115.429688 152.289062 113.671875 152.070312 111.40625 L 144.527344 13.894531 C 144.308594 11.480469 146.140625 9.359375 148.554688 9.210938 C 150.972656 8.992188 153.09375 10.820312 153.242188 13.238281 L 160.855469 110.746094 C 161.074219 113.160156 159.242188 115.285156 156.828125 115.429688 C 156.679688 115.429688 156.609375 115.429688 156.460938 115.429688 Z M 156.460938 115.429688 " fill-opacity="1" fill-rule="nonzero"/><path fill="#ffffff" d="M 218.539062 115.429688 C 218.390625 115.429688 218.320312 115.429688 218.171875 115.429688 C 215.757812 115.210938 213.925781 113.160156 214.144531 110.746094 L 221.757812 13.238281 C 221.980469 10.820312 224.101562 8.992188 226.445312 9.210938 C 228.859375 9.429688 230.691406 11.480469 230.472656 13.894531 L 222.929688 111.332031 C 222.710938 113.671875 220.808594 115.429688 218.539062 115.429688 Z M 218.539062 115.429688 " fill-opacity="1" fill-rule="nonzero"/><path fill="#ffffff" d="M 75.203125 98.445312 C 74.035156 98.445312 72.9375 98.007812 72.058594 97.128906 C 70.375 95.371094 70.375 92.589844 72.128906 90.90625 L 100.019531 63.457031 C 101.777344 61.773438 104.558594 61.773438 106.242188 63.527344 C 107.925781 65.285156 107.925781 68.066406 106.171875 69.75 L 78.28125 97.203125 C 77.402344 98.007812 76.304688 98.445312 75.203125 98.445312 Z M 75.203125 98.445312 " fill-opacity="1" fill-rule="nonzero"/><g clip-path="url(#47e8d894d0)"><path fill="#ffffff" d="M 254.1875 370.546875 C 240.058594 370.546875 224.175781 367.839844 206.242188 362.496094 C 203.898438 361.835938 202.578125 359.347656 203.3125 357.003906 C 203.972656 354.660156 206.460938 353.34375 208.800781 354.074219 C 243.648438 364.472656 271.171875 364.105469 290.425781 352.976562 C 306.675781 343.609375 314.65625 328.527344 321.023438 316.523438 C 323.074219 312.640625 324.902344 309.273438 326.734375 306.421875 C 328.050781 304.371094 330.832031 303.859375 332.808594 305.175781 C 334.859375 306.492188 335.371094 309.273438 334.054688 311.25 C 332.445312 313.742188 330.761719 316.886719 328.785156 320.546875 C 322.269531 332.917969 313.265625 349.828125 294.816406 360.519531 C 283.398438 367.179688 269.929688 370.546875 254.1875 370.546875 Z M 254.1875 370.546875 " fill-opacity="1" fill-rule="nonzero"/></g><path fill="#ffffff" d="M 198.335938 366.59375 L 161.953125 366.59375 C 152.507812 366.59375 144.820312 358.90625 144.820312 349.464844 L 144.820312 328.015625 C 144.820312 318.570312 152.507812 310.886719 161.953125 310.886719 L 198.335938 310.886719 C 207.777344 310.886719 215.464844 318.570312 215.464844 328.015625 L 215.464844 349.464844 C 215.464844 358.90625 207.777344 366.59375 198.335938 366.59375 Z M 161.953125 319.671875 C 157.339844 319.671875 153.605469 323.402344 153.605469 328.015625 L 153.605469 349.464844 C 153.605469 354.074219 157.339844 357.808594 161.953125 357.808594 L 198.335938 357.808594 C 202.945312 357.808594 206.679688 354.074219 206.679688 349.464844 L 206.679688 328.015625 C 206.679688 323.402344 202.945312 319.671875 198.335938 319.671875 Z M 161.953125 319.671875 " fill-opacity="1" fill-rule="nonzero"/><path fill="#ffffff" d="M 270.804688 338.847656 L 211.070312 338.847656 C 208.65625 338.847656 206.679688 336.871094 206.679688 334.457031 C 206.679688 332.042969 208.65625 330.066406 211.070312 330.066406 L 270.804688 330.066406 C 273.222656 330.066406 275.199219 332.042969 275.199219 334.457031 C 275.199219 336.871094 273.296875 338.847656 270.804688 338.847656 Z M 270.804688 338.847656 " fill-opacity="1" fill-rule="nonzero"/><g fill="#000000" fill-opacity="1"><g transform="translate(152.786128, 198.749987)"><g><path d="M 0.46875 -22.046875 L 9.734375 -22.046875 C 12.898438 -22.046875 15.257812 -21.585938 16.8125 -20.671875 C 18.375 -19.765625 19.15625 -18.132812 19.15625 -15.78125 C 19.15625 -13.175781 18.207031 -11.378906 16.3125 -10.390625 C 14.550781 -9.492188 12.085938 -9.046875 8.921875 -9.046875 L 8.65625 -9.046875 L 8.65625 -0.59375 L 12.59375 -0.59375 L 12.59375 0 L 0.46875 0 L 0.46875 -0.59375 L 2.515625 -0.59375 L 2.515625 -21.453125 L 0.46875 -21.453125 Z M 8.65625 -21.453125 L 8.65625 -9.640625 L 9.328125 -9.640625 C 10.585938 -9.640625 11.457031 -10.066406 11.9375 -10.921875 C 12.414062 -11.785156 12.65625 -13.1875 12.65625 -15.125 L 12.65625 -16.625 C 12.65625 -18.414062 12.429688 -19.664062 11.984375 -20.375 C 11.535156 -21.09375 10.710938 -21.453125 9.515625 -21.453125 Z M 8.65625 -21.453125 "/></g></g></g><g fill="#000000" fill-opacity="1"><g transform="translate(172.757154, 198.749987)"><g><path d="M 4.9375 -17.171875 C 3.832031 -17.171875 3.039062 -17.453125 2.5625 -18.015625 C 2.09375 -18.585938 1.859375 -19.289062 1.859375 -20.125 C 1.859375 -20.96875 2.113281 -21.660156 2.625 -22.203125 C 3.144531 -22.753906 3.925781 -23.03125 4.96875 -23.03125 C 6.019531 -23.03125 6.816406 -22.78125 7.359375 -22.28125 C 7.910156 -21.789062 8.1875 -21.085938 8.1875 -20.171875 C 8.1875 -19.265625 7.921875 -18.535156 7.390625 -17.984375 C 6.867188 -17.441406 6.050781 -17.171875 4.9375 -17.171875 Z M 0.1875 -15 L 7.90625 -15 L 7.90625 -0.5625 L 9.671875 -0.5625 L 9.671875 0 L 0.3125 0 L 0.3125 -0.5625 L 2.046875 -0.5625 L 2.046875 -14.421875 L 0.1875 -14.421875 Z M 0.1875 -15 "/></g></g></g><g fill="#000000" fill-opacity="1"><g transform="translate(182.742661, 198.749987)"><g><path d="M 0.1875 -23.625 L 7.90625 -23.625 L 7.90625 -0.5625 L 9.671875 -0.5625 L 9.671875 0 L 0.3125 0 L 0.3125 -0.5625 L 2.046875 -0.5625 L 2.046875 -23.0625 L 0.1875 -23.0625 Z M 0.1875 -23.625 "/></g></g></g><g fill="#000000" fill-opacity="1"><g transform="translate(192.696674, 198.749987)"><g><path d="M 10.484375 -6.203125 L 10.484375 -8.890625 C 10.484375 -10.921875 10.375 -12.398438 10.15625 -13.328125 C 9.9375 -14.265625 9.425781 -14.734375 8.625 -14.734375 C 8.164062 -14.734375 7.796875 -14.601562 7.515625 -14.34375 C 7.234375 -14.082031 7.03125 -13.648438 6.90625 -13.046875 C 6.707031 -12.097656 6.609375 -10.65625 6.609375 -8.71875 L 6.609375 -6.265625 C 6.609375 -3.972656 6.675781 -2.597656 6.8125 -2.140625 C 6.957031 -1.679688 7.101562 -1.304688 7.25 -1.015625 C 7.476562 -0.503906 7.925781 -0.25 8.59375 -0.25 C 9.414062 -0.25 9.953125 -0.722656 10.203125 -1.671875 C 10.390625 -2.335938 10.484375 -3.847656 10.484375 -6.203125 Z M 8.53125 0.3125 C 5.90625 0.3125 3.921875 -0.359375 2.578125 -1.703125 C 1.234375 -3.046875 0.5625 -4.972656 0.5625 -7.484375 C 0.5625 -9.992188 1.28125 -11.925781 2.71875 -13.28125 C 4.15625 -14.632812 6.175781 -15.3125 8.78125 -15.3125 C 11.382812 -15.3125 13.328125 -14.6875 14.609375 -13.4375 C 15.890625 -12.1875 16.53125 -10.28125 16.53125 -7.71875 C 16.53125 -2.363281 13.863281 0.3125 8.53125 0.3125 Z M 8.53125 0.3125 "/></g></g></g><g fill="#000000" fill-opacity="1"><g transform="translate(209.801196, 198.749987)"><g><path d="M 1.890625 -4.5 L 1.890625 -14.421875 L 0.15625 -14.421875 L 0.15625 -15 L 1.890625 -15 L 1.890625 -19.0625 L 7.75 -20.5 L 7.75 -15 L 11.84375 -15 L 11.84375 -14.421875 L 7.75 -14.421875 L 7.75 -3.8125 C 7.75 -2.820312 7.847656 -2.09375 8.046875 -1.625 C 8.242188 -1.164062 8.65625 -0.9375 9.28125 -0.9375 C 9.914062 -0.9375 10.46875 -1.25 10.9375 -1.875 C 11.414062 -2.507812 11.726562 -3.375 11.875 -4.46875 L 12.40625 -4.40625 C 12.238281 -2.957031 11.773438 -1.804688 11.015625 -0.953125 C 10.265625 -0.109375 9.015625 0.3125 7.265625 0.3125 C 5.523438 0.3125 4.191406 -0.03125 3.265625 -0.71875 C 2.347656 -1.414062 1.890625 -2.675781 1.890625 -4.5 Z M 1.890625 -4.5 "/></g></g></g></svg>